<svg xmlns="http://www.w3.org/2000/svg" width="36.65" height="36.65" viewBox="0 0 36.65 36.65">
  <g id="Chart" transform="translate(0)">
    <path id="Path_103" data-name="Path 103" d="M2,7.169A5.114,5.114,0,0,1,7.058,2a5.114,5.114,0,0,1,5.058,5.169V33.482A5.114,5.114,0,0,1,7.058,38.65,5.114,5.114,0,0,1,2,33.482ZM7.058,4.819a2.325,2.325,0,0,0-2.3,2.349V33.482a2.3,2.3,0,1,0,4.6,0V7.169A2.325,2.325,0,0,0,7.058,4.819Z" transform="translate(-2 -2)" fill="#7d58ee"/>
    <path id="Path_104" data-name="Path 104" d="M9.179,12.186a5.058,5.058,0,1,1,10.115,0V28.738a5.058,5.058,0,0,1-10.115,0Zm5.058-2.3a2.3,2.3,0,0,0-2.3,2.3V28.738a2.3,2.3,0,0,0,4.6,0V12.186A2.3,2.3,0,0,0,14.237,9.887Z" transform="translate(4.088 2.855)" fill="#7d58ee"/>
    <path id="Path_105" data-name="Path 105" d="M16.359,7.169a5.059,5.059,0,1,1,10.115,0V33.482a5.059,5.059,0,1,1-10.115,0Zm5.058-2.349a2.325,2.325,0,0,0-2.3,2.349V33.482a2.3,2.3,0,1,0,4.6,0V7.169A2.325,2.325,0,0,0,21.417,4.819Z" transform="translate(10.176 -2)" fill="#7d58ee"/>
  </g>
</svg>
