<svg id="Chat" xmlns="http://www.w3.org/2000/svg" width="36.65" height="36.65" viewBox="0 0 36.65 36.65">
  <path id="Path_106" data-name="Path 106" d="M20.325,4.819A15.512,15.512,0,0,0,6.541,27.435a1.409,1.409,0,0,1,.157.647v5.869h5.869a1.411,1.411,0,0,1,.647.157,15.507,15.507,0,1,0,7.11-29.29ZM2,20.325A18.314,18.314,0,1,1,12.233,36.771H5.289a1.41,1.41,0,0,1-1.41-1.41V28.418A18.256,18.256,0,0,1,2,20.325Z" transform="translate(-2 -2)" fill="#7d58ee"/>
  <path id="Path_107" data-name="Path 107" d="M11.3,12.673a1.7,1.7,0,1,1-1.7-1.7A1.7,1.7,0,0,1,11.3,12.673Z" transform="translate(0.7 5.652)" fill="#7d58ee"/>
  <path id="Path_108" data-name="Path 108" d="M14.373,12.673a1.7,1.7,0,1,1-1.7-1.7A1.7,1.7,0,0,1,14.373,12.673Z" transform="translate(5.652 5.652)" fill="#7d58ee"/>
  <path id="Path_109" data-name="Path 109" d="M17.45,12.673a1.7,1.7,0,1,1-1.7-1.7A1.7,1.7,0,0,1,17.45,12.673Z" transform="translate(10.603 5.652)" fill="#7d58ee"/>
</svg>
